<?xml version="1.0" encoding="UTF-8"?>
<svg width="1470px" height="807px" viewBox="0 0 1470 807" version="1.1" xmlns="http://www.w3.org/2000/svg" xmlns:xlink="http://www.w3.org/1999/xlink">
    <title>banner-art</title>
    <g id="Page-1" stroke="none" stroke-width="1" fill="none" fill-rule="evenodd">
        <g id="banner-art" fill-rule="nonzero">
            <path d="M521.119,630.408 L521.119,579.748 C521.119,563.955 508.317,551.152 492.524,551.152 L456.372,551.152 L456.372,792.094 L502.714,792.094 L521.119,792.094 L578.3,792.094 L578.3,687.589 C578.3,671.796 565.497,658.993 549.704,658.993 C533.922,659.004 521.119,646.201 521.119,630.408 Z" id="Path" fill="#B6D5D0"></path>
            <polygon id="Path" fill="#E9928B" points="831.839 731.837 808.77 754.366 801.009 742.826 788.627 724.41 818.291 710.625 826.387 723.309"></polygon>
            <path d="M826.387,723.309 C814.491,729.376 805.359,738.163 801.009,742.826 L788.627,724.41 L818.291,710.625 L826.387,723.309 Z" id="Path" fill="#DE6667"></path>
            <polygon id="Path" fill="#EDF6F5" points="899.901 55.9502 410.181 55.9502 410.181 311.303 899.901 311.303"></polygon>
            <polygon id="Path" fill="#DCECEB" points="515.927 78.8867 437.049 78.8867 437.049 151.633 515.927 151.633"></polygon>
            <polygon id="Path" fill="#B6D5D0" points="851.28 144.748 848.322 144.748 848.322 140.311 843.886 140.311 843.886 137.354 851.28 137.354"></polygon>
            <path d="M831.786,140.311 L819.685,140.311 L819.685,137.354 L831.786,137.354 L831.786,140.311 Z M807.595,140.311 L795.494,140.311 L795.494,137.354 L807.595,137.354 L807.595,140.311 Z M783.393,140.311 L771.292,140.311 L771.292,137.354 L783.393,137.354 L783.393,140.311 Z M759.201,140.311 L747.1,140.311 L747.1,137.354 L759.201,137.354 L759.201,140.311 Z M734.999,140.311 L722.898,140.311 L722.898,137.354 L734.999,137.354 L734.999,140.311 Z M710.808,140.311 L698.707,140.311 L698.707,137.354 L710.808,137.354 L710.808,140.311 Z M686.617,140.311 L674.516,140.311 L674.516,137.354 L686.617,137.354 L686.617,140.311 Z M662.414,140.311 L650.313,140.311 L650.313,137.354 L662.414,137.354 L662.414,140.311 Z M638.223,140.311 L626.122,140.311 L626.122,137.354 L638.223,137.354 L638.223,140.311 Z" id="Shape" fill="#B6D5D0"></path>
            <polygon id="Path" fill="#B6D5D0" points="609.583 144.748 606.625 144.748 606.625 137.354 614.02 137.354 614.02 140.311 609.583 140.311"></polygon>
            <path d="M609.583,265.576 L606.625,265.576 L606.625,253.496 L609.583,253.496 L609.583,265.576 Z M609.583,241.417 L606.625,241.417 L606.625,229.326 L609.583,229.326 L609.583,241.417 Z M609.583,217.247 L606.625,217.247 L606.625,205.168 L609.583,205.168 L609.583,217.247 Z M609.583,193.077 L606.625,193.077 L606.625,180.998 L609.583,180.998 L609.583,193.077 Z M609.583,168.918 L606.625,168.918 L606.625,156.839 L609.583,156.839 L609.583,168.918 Z" id="Shape" fill="#B6D5D0"></path>
            <polygon id="Path" fill="#B6D5D0" points="614.02 285.049 606.625 285.049 606.625 277.665 609.583 277.665 609.583 282.091 614.02 282.091"></polygon>
            <path d="M831.786,285.049 L819.685,285.049 L819.685,282.091 L831.786,282.091 L831.786,285.049 Z M807.595,285.049 L795.494,285.049 L795.494,282.091 L807.595,282.091 L807.595,285.049 Z M783.393,285.049 L771.292,285.049 L771.292,282.091 L783.393,282.091 L783.393,285.049 Z M759.201,285.049 L747.1,285.049 L747.1,282.091 L759.201,282.091 L759.201,285.049 Z M734.999,285.049 L722.898,285.049 L722.898,282.091 L734.999,282.091 L734.999,285.049 Z M710.808,285.049 L698.707,285.049 L698.707,282.091 L710.808,282.091 L710.808,285.049 Z M686.617,285.049 L674.516,285.049 L674.516,282.091 L686.617,282.091 L686.617,285.049 Z M662.414,285.049 L650.313,285.049 L650.313,282.091 L662.414,282.091 L662.414,285.049 Z M638.223,285.049 L626.122,285.049 L626.122,282.091 L638.223,282.091 L638.223,285.049 Z" id="Shape" fill="#B6D5D0"></path>
            <polygon id="Path" fill="#B6D5D0" points="851.28 285.049 843.886 285.049 843.886 282.091 848.322 282.091 848.322 277.665 851.28 277.665"></polygon>
            <path d="M851.28,265.576 L848.322,265.576 L848.322,253.496 L851.28,253.496 L851.28,265.576 Z M851.28,241.417 L848.322,241.417 L848.322,229.326 L851.28,229.326 L851.28,241.417 Z M851.28,217.247 L848.322,217.247 L848.322,205.168 L851.28,205.168 L851.28,217.247 Z M851.28,193.077 L848.322,193.077 L848.322,180.998 L851.28,180.998 L851.28,193.077 Z M851.28,168.918 L848.322,168.918 L848.322,156.839 L851.28,156.839 L851.28,168.918 Z" id="Shape" fill="#B6D5D0"></path>
            <path d="M622.948,325.097 L365.026,325.097 C360.978,325.097 357.696,321.815 357.696,317.767 L357.696,191.111 C357.696,187.063 360.978,183.781 365.026,183.781 L622.948,183.781 C626.996,183.781 630.278,187.063 630.278,191.111 L630.278,317.778 C630.267,321.815 626.996,325.097 622.948,325.097 Z" id="Path" fill="#B2E5E0"></path>
            <path d="M631.822,333.973 L373.9,333.973 C369.852,333.973 366.57,330.691 366.57,326.643 L366.57,199.976 C366.57,195.928 369.852,192.646 373.9,192.646 L631.822,192.646 C635.87,192.646 639.152,195.928 639.152,199.976 L639.152,326.643 C639.141,330.691 635.87,333.973 631.822,333.973 Z" id="Path" fill="#3FB8A9"></path>
            <path d="M386.032,323.618 L617.723,323.618 C617.723,323.618 610.004,269.558 597.838,253.128 C585.683,236.698 575.493,259.367 562.021,286.322 C548.549,313.266 520.612,325.432 500.242,298.477 C479.861,271.533 470.664,262.983 447.984,277.449 C425.304,291.914 407.557,279.748 400.001,261.019 C392.444,242.29 386.032,242.613638 386.032,242.613638 L386.032,323.618 Z" id="Path" fill="#FFFFFF" opacity="0.67"></path>
            <path d="M386.032,323.619 C386.032,323.619 396.708,324.115 405.258,312.284 C413.807,300.453 416.107,282.382 425.304,276.791 C434.501,271.199 443.051,276.791 455.864,300.205 C468.678,323.619 488.724,312.608 497.273,289.28 C505.823,265.953 509.763,254.769 523.894,253.463 C538.024,252.146 546.897,269.569 551.831,286.323 C556.764,303.087 569.578,308.668 582.391,301.77 C595.205,294.872 617.723,323.63 617.723,323.63 L386.032,323.63 L386.032,323.619 Z" id="Path" fill="#FFFFFF" opacity="0.28"></path>
            <path d="M390.469,213.037 C388.018,213.037 386.032,211.05 386.032,208.6 C386.032,206.149 388.018,204.163 390.469,204.163 C392.919,204.163 394.906,206.149 394.906,208.6 C394.906,211.05 392.919,213.037 390.469,213.037 Z" id="Path" fill="#FFFFFF"></path>
            <polygon id="Path" fill="#FFFFFF" points="498.925 205.968 405.917 205.968 405.917 211.225 498.925 211.225"></polygon>
            <path d="M390.469,229.056 C388.018,229.056 386.032,227.07 386.032,224.619 C386.032,222.169 388.018,220.183 390.469,220.183 C392.919,220.183 394.906,222.169 394.906,224.619 C394.906,227.07 392.919,229.056 390.469,229.056 Z" id="Path" fill="#FFFFFF"></path>
            <polygon id="Path" fill="#FFFFFF" points="477.562 221.985 405.917 221.985 405.917 227.242 477.562 227.242"></polygon>
            <polygon id="Path" fill="#FFFFFF" points="525.167 86.3486 446.289 86.3486 446.289 159.095 525.167 159.095"></polygon>
            <polygon id="Path" fill="#FFAB40" points="515.927 118.538 487.245 131.514 458.574 118.538 458.574 137.926 515.927 137.926"></polygon>
            <polygon id="Path" fill="#FFAB40" points="515.927 109.783 458.574 109.783 458.574 114.965 487.245 127.649 515.927 114.965"></polygon>
            <path d="M763.152,133.015 L604.5,133.015 L604.5,125.609 L763.152,125.609 L763.152,133.015 Z M605.493,132.021 L762.17,132.021 L762.17,126.581 L605.493,126.581 L605.493,132.021 Z" id="Shape" fill="#FFFFFF"></path>
            <path d="M763.152,102.441 L604.5,102.441 L604.5,95.0361 L763.152,95.0361 L763.152,102.441 Z M605.493,101.459 L762.17,101.459 L762.17,96.0185 L605.493,96.0185 L605.493,101.459 Z" id="Shape" fill="#FFFFFF"></path>
            <path d="M763.153,71.8838 L604.5,71.8838 L604.5,64.4785 L763.153,64.4785 L763.153,71.8838 Z M605.494,70.9014 L762.17,70.9014 L762.17,65.4608 L605.494,65.4608 L605.494,70.9014 Z" id="Shape" fill="#FFFFFF"></path>
            <polygon id="Path" fill="#E9928B" points="909.271 729.894 883.914 753.546 877.588 725.198 875.138 714.231 905.439 706.566 907.188 717.243"></polygon>
            <path d="M907.188,717.241 C907.188,717.241 900.657,716.561 894.655,718.029 C890.251,719.108 877.578,725.196 877.578,725.196 L875.127,714.218 L905.429,706.554 L907.188,717.241 Z" id="Path" fill="#DE6667"></path>
            <path d="M902.697,727.304 C889.862,727.11 885.263,737.635 880.945,747.415 C876.628,757.195 871.403,780.005 863.922,782.315 C856.441,784.614 852.415,788.641 852.415,793.25 L879.402,793.25 C879.402,793.25 896.339,774.629 905.05,767.364 C913.762,760.099 915.878,755.382 915.878,755.382 C915.878,755.382 912.531,737.387 909.271,729.917 C909.271,729.895 906.972,727.369 902.697,727.304 Z" id="Path" fill="#0C1B3C"></path>
            <path d="M904.823,746.066 C895.464,748.009 892.02,758.049 886.266,774.738 C880.513,791.416 869.103,793.24 869.103,793.24 L900.98,793.24 C900.98,793.24 902.761,787.109 906.55,779.347 C909.357,773.593 914.193,767.03 915.413,761.028 C918.284,746.93 907.101,745.591 904.823,746.066 Z" id="Path" fill="#408C91"></path>
            <path d="M907.102,709.092 C887.088,711.305 873.044,717.966 873.044,717.966 C873.044,717.966 866.232,720.179 856.376,699.442 C846.521,678.683 811.858,613.709 811.858,613.709 L851.713,614.972 L881.842,615.933 C881.842,615.933 898.109,657.094 906,674.592 C913.892,692.08 907.102,709.092 907.102,709.092 Z" id="Path" fill="#376F92"></path>
            <path d="M873.053,681.069 C860.974,695.534 865.022,712.363 873.053,717.966 C873.053,717.966 866.242,720.179 856.386,699.442 C846.53,678.683 811.868,613.709 811.868,613.709 L851.723,614.972 L877.738,626.522 C877.738,626.522 852.111,629.804 846.358,643.287 C840.604,656.759 885.122,666.615 873.053,681.069 Z" id="Path" fill="#1B5175"></path>
            <path d="M1469.09,796.489 C1469.09,796.489 1469.21,723.796 1389.61,759.15 C1389.61,759.15 1372.11,696.572 1326.28,699.529 C1280.43,702.487 1275.99,761.708 1275.99,761.708 C1275.99,761.708 1213.21,729.798 1179.53,794.514 L1469.09,796.489 Z" id="Path" fill="#ADCCC7"></path>
            <path d="M1335,793.908 L1333.05,793.638 C1338.35,755.78 1317.96,728.631 1317.75,728.361 L1319.32,727.163 C1319.52,727.433 1340.41,755.241 1335,793.908 Z" id="Path" fill="#6EAB9C"></path>
            <path d="M1335.71,770.681 L1334.11,769.515 C1334.3,769.256 1352.92,743.651 1356.09,727.556 L1358.03,727.933 C1354.78,744.471 1336.49,769.623 1335.71,770.681 Z" id="Path" fill="#6EAB9C"></path>
            <path d="M1334.83,784.099 C1320.29,783.192 1307.43,765.985 1306.89,765.251 L1308.48,764.085 C1308.61,764.258 1321.33,781.281 1334.95,782.134 L1334.83,784.099 Z" id="Path" fill="#6EAB9C"></path>
            <path d="M1381.46,793.652 L1384.11,791.752 C1384.35,791.569 1409.56,773.714 1436.54,772.451 L1436.63,774.416 C1415.51,775.398 1395.44,786.83 1388.14,791.439 L1414.32,790.532 L1414.39,792.497 L1381.46,793.652 Z" id="Path" fill="#6EAB9C"></path>
            <path d="M1402.19,783.428 L1400.32,782.791 C1404.46,770.711 1413.21,759.29 1413.57,758.805 L1415.14,760.003 C1415.05,760.122 1406.22,771.661 1402.19,783.428 Z" id="Path" fill="#6EAB9C"></path>
            <path d="M1275.54,793.305 C1275.35,793.143 1255.8,776.724 1233.99,769.071 L1234.64,767.214 C1256.8,774.986 1276.61,791.632 1276.82,791.794 L1275.54,793.305 Z" id="Path" fill="#6EAB9C"></path>
            <path d="M1224.71,787.554 L1223.81,785.794 C1224.38,785.503 1238.16,778.605 1263.49,782.135 L1263.22,784.089 C1238.55,780.667 1224.84,787.489 1224.71,787.554 Z" id="Path" fill="#6EAB9C"></path>
            <g id="Group" opacity="0.4" transform="translate(609.000000, 545.000000)" fill="#F4D7C9">
                <path d="M155.792,91.855 L151.344,89.383 C148.527,87.818 146.789,84.838 146.843,81.621 C146.854,81.254 146.865,80.898 146.865,80.531 C146.865,80.164 146.854,79.808 146.843,79.441 C146.789,76.224 148.527,73.245 151.344,71.679 L155.792,69.207 C159.311,67.253 161.038,63.162 160.013,59.276 C159.991,59.233 159.991,59.19 159.97,59.146 C158.933,55.271 155.371,52.594 151.366,52.659 L146.271,52.745 C143.011,52.799 140.031,51.018 138.434,48.179 C138.11,47.618 137.786,47.056 137.473,46.506 C135.789,43.71 135.735,40.223 137.419,37.416 L140.031,33.077 C142.104,29.622 141.553,25.207 138.714,22.368 C138.682,22.336 138.639,22.293 138.606,22.26 C135.767,19.421 131.352,18.871 127.898,20.943 L123.558,23.556 C120.752,25.24 117.265,25.175 114.469,23.502 C113.919,23.178 113.357,22.854 112.796,22.541 C109.957,20.954 108.165,17.975 108.23,14.704 L108.316,9.609 C108.381,5.593 105.704,2.042 101.828,1.005 C101.785,0.984 101.742,0.984 101.699,0.962 C97.813,-0.063 93.721,1.664 91.767,5.183 L89.295,9.63 C87.73,12.448 84.751,14.186 81.534,14.132 C81.167,14.121 80.811,14.11 80.444,14.11 C80.077,14.11 79.72,14.121 79.353,14.132 C76.137,14.186 73.157,12.448 71.592,9.63 L69.12,5.183 C67.166,1.664 63.075,-0.063 59.189,0.962 C59.145,0.984 59.102,0.984 59.059,1.005 C55.184,2.042 52.507,5.604 52.571,9.609 L52.658,14.704 C52.712,17.964 50.93,20.943 48.091,22.541 C47.53,22.865 46.969,23.189 46.418,23.502 C43.622,25.186 40.136,25.24 37.329,23.556 L32.989,20.943 C29.535,18.882 25.12,19.421 22.281,22.26 C22.248,22.293 22.205,22.336 22.173,22.368 C19.334,25.207 18.783,29.622 20.856,33.077 L23.468,37.416 C25.152,40.223 25.088,43.71 23.414,46.506 C23.09,47.056 22.767,47.618 22.454,48.179 C20.867,51.018 17.887,52.81 14.617,52.745 L9.521,52.659 C5.506,52.594 1.954,55.271 0.918,59.146 C0.896,59.19 0.896,59.233 0.875,59.276 C-0.151,63.162 1.576,67.253 5.095,69.207 L9.543,71.679 C12.36,73.245 14.098,76.224 14.044,79.441 C14.034,79.808 14.023,80.164 14.023,80.531 C14.023,80.898 14.034,81.254 14.044,81.621 C14.098,84.838 12.36,87.818 9.543,89.383 L5.095,91.855 C1.576,93.809 -0.151,97.9 0.875,101.786 C0.896,101.829 0.896,101.873 0.918,101.916 C1.954,105.791 5.516,108.468 9.521,108.403 L14.617,108.317 C17.877,108.263 20.856,110.044 22.454,112.883 C22.777,113.445 23.101,114.006 23.414,114.557 C25.098,117.352 25.152,120.839 23.468,123.646 L20.856,127.985 C18.794,131.44 19.334,135.855 22.173,138.694 C22.205,138.726 22.248,138.769 22.281,138.802 C25.12,141.641 29.535,142.191 32.989,140.119 L37.329,137.507 C40.136,135.823 43.622,135.887 46.418,137.56 C46.969,137.884 47.53,138.208 48.091,138.521 C50.93,140.108 52.722,143.087 52.658,146.358 L52.571,151.453 C52.507,155.469 55.184,159.021 59.059,160.057 C59.102,160.078 59.145,160.079 59.189,160.1 C63.075,161.126 67.166,159.398 69.12,155.879 L71.592,151.432 C73.157,148.614 76.137,146.876 79.353,146.93 C79.72,146.941 80.077,146.952 80.444,146.952 C80.811,146.952 81.167,146.941 81.534,146.93 C84.751,146.876 87.73,148.614 89.295,151.432 L91.767,155.879 C93.721,159.398 97.813,161.126 101.699,160.1 C101.742,160.079 101.785,160.078 101.828,160.057 C105.704,159.021 108.381,155.458 108.316,151.453 L108.23,146.358 C108.176,143.098 109.957,140.119 112.796,138.521 C113.357,138.197 113.919,137.873 114.469,137.56 C117.265,135.876 120.752,135.823 123.558,137.507 L127.898,140.119 C131.352,142.181 135.767,141.641 138.606,138.802 C138.639,138.769 138.682,138.726 138.714,138.694 C141.553,135.855 142.104,131.44 140.031,127.985 L137.419,123.646 C135.735,120.839 135.8,117.352 137.473,114.557 C137.797,114.006 138.121,113.445 138.434,112.883 C140.021,110.044 143,108.252 146.271,108.317 L151.366,108.403 C155.382,108.468 158.933,105.791 159.97,101.916 C159.991,101.873 159.991,101.829 160.013,101.786 C161.038,97.9 159.311,93.798 155.792,91.855 Z M80.422,129.939 C53.133,129.939 31.003,107.821 31.003,80.52 C31.003,53.231 53.122,31.101 80.422,31.101 C107.712,31.101 129.841,53.22 129.841,80.52 C129.83,107.821 107.712,129.939 80.422,129.939 Z" id="Shape"></path>
                <path d="M101.992,86.758 C105.246,74.878 98.254,62.61 86.374,59.356 C74.494,56.101 62.225,63.094 58.971,74.974 C55.717,86.854 62.709,99.122 74.589,102.377 C86.469,105.631 98.738,98.638 101.992,86.758 Z" id="Path"></path>
            </g>
            <g id="Group" opacity="0.4" transform="translate(967.000000, 682.000000)" fill="#F4D7C9">
                <path d="M90.68,54.114 L88.09,52.667 C86.45,51.75 85.43,50.012 85.45,48.134 C85.45,47.918 85.46,47.713 85.46,47.497 C85.46,47.281 85.46,47.076 85.45,46.86 C85.42,44.982 86.44,43.244 88.09,42.326 L90.68,40.879 C92.73,39.735 93.74,37.35 93.14,35.083 C93.13,35.061 93.13,35.029 93.12,35.007 C92.51,32.74 90.44,31.175 88.1,31.218 L85.12,31.261 C83.22,31.294 81.47,30.246 80.54,28.595 C80.36,28.271 80.16,27.936 79.98,27.623 C79,25.993 78.97,23.953 79.95,22.312 L81.47,19.776 C82.68,17.757 82.36,15.188 80.7,13.525 C80.68,13.504 80.66,13.482 80.64,13.461 C78.98,11.798 76.41,11.485 74.39,12.694 L71.85,14.216 C70.21,15.198 68.18,15.166 66.54,14.184 C66.22,14 65.89,13.806 65.57,13.622 C63.91,12.694 62.87,10.956 62.9,9.045 L62.95,6.066 C62.99,3.723 61.42,1.651 59.16,1.046 C59.14,1.036 59.1,1.036 59.08,1.025 C56.82,0.42 54.42,1.435 53.29,3.486 L51.84,6.077 C50.92,7.718 49.18,8.732 47.3,8.711 C47.09,8.711 46.88,8.7 46.67,8.7 C46.45,8.7 46.25,8.7 46.03,8.711 C44.15,8.743 42.41,7.728 41.5,6.077 L40.05,3.486 C38.91,1.435 36.52,0.42 34.25,1.025 C34.23,1.036 34.2,1.036 34.18,1.046 C31.912,1.651 30.357,3.723 30.389,6.066 L30.433,9.045 C30.465,10.945 29.418,12.694 27.766,13.622 C27.442,13.806 27.108,14 26.795,14.184 C25.165,15.166 23.125,15.198 21.484,14.216 L18.947,12.694 C16.928,11.485 14.359,11.809 12.697,13.461 C12.675,13.482 12.653,13.504 12.632,13.525 C10.969,15.188 10.656,17.757 11.865,19.776 L13.388,22.312 C14.37,23.953 14.337,25.983 13.355,27.623 C13.172,27.947 12.977,28.271 12.794,28.595 C11.865,30.257 10.127,31.294 8.217,31.261 L5.237,31.218 C2.895,31.175 0.822,32.74 0.218,35.007 C0.207,35.029 0.207,35.061 0.196,35.083 C-0.408,37.35 0.606,39.746 2.657,40.879 L5.248,42.326 C6.889,43.244 7.904,44.982 7.882,46.86 C7.882,47.076 7.871,47.281 7.871,47.497 C7.871,47.713 7.871,47.918 7.882,48.134 C7.915,50.012 6.9,51.75 5.248,52.667 L2.657,54.114 C0.606,55.258 -0.408,57.644 0.196,59.911 C0.207,59.932 0.207,59.965 0.218,59.986 C0.822,62.253 2.895,63.808 5.237,63.775 L8.217,63.732 C10.117,63.7 11.865,64.747 12.794,66.399 C12.977,66.722 13.172,67.057 13.355,67.37 C14.337,69 14.37,71.04 13.388,72.681 L11.865,75.218 C10.656,77.237 10.98,79.806 12.632,81.468 C12.653,81.49 12.675,81.511 12.697,81.533 C14.359,83.195 16.928,83.508 18.947,82.299 L21.484,80.777 C23.125,79.795 25.154,79.827 26.795,80.81 C27.119,80.993 27.442,81.187 27.766,81.371 C29.429,82.299 30.465,84.037 30.433,85.948 L30.389,88.927 C30.346,91.27 31.912,93.343 34.18,93.947 C34.2,93.958 34.23,93.958 34.25,93.969 C36.52,94.573 38.92,93.558 40.05,91.507 L41.5,88.917 C42.41,87.276 44.15,86.261 46.03,86.283 C46.25,86.283 46.45,86.294 46.67,86.294 C46.88,86.294 47.09,86.294 47.3,86.283 C49.18,86.25 50.92,87.265 51.84,88.917 L53.29,91.507 C54.43,93.558 56.82,94.573 59.08,93.969 C59.1,93.958 59.14,93.958 59.16,93.947 C61.42,93.343 62.98,91.27 62.95,88.927 L62.9,85.948 C62.87,84.048 63.92,82.299 65.57,81.371 C65.89,81.187 66.23,80.993 66.54,80.81 C68.17,79.827 70.21,79.795 71.85,80.777 L74.39,82.299 C76.41,83.508 78.98,83.185 80.64,81.533 C80.66,81.511 80.68,81.49 80.7,81.468 C82.37,79.806 82.68,77.237 81.47,75.218 L79.95,72.681 C78.97,71.04 79,69.011 79.98,67.37 C80.16,67.046 80.36,66.722 80.54,66.399 C81.47,64.736 83.21,63.7 85.12,63.732 L88.1,63.775 C90.44,63.819 92.51,62.253 93.12,59.986 C93.13,59.965 93.13,59.932 93.14,59.911 C93.73,57.644 92.73,55.247 90.68,54.114 Z M46.68,76.341 C30.746,76.341 17.835,63.43 17.835,47.497 C17.835,31.563 30.746,18.653 46.68,18.653 C62.61,18.653 75.52,31.563 75.52,47.497 C75.52,63.43 62.61,76.341 46.68,76.341 Z" id="Shape"></path>
            </g>
            <polygon id="Path" fill="#EB908B" points="1065.58 109.783 1196.25 109.783 1196.25 154.787 1172.96 154.787 1185.11 183.404 1141.68 154.787 1065.58 154.787"></polygon>
            <polygon id="Path" fill="#FFFFFF" points="1182.67 122.932 1081.08 122.932 1081.08 127.897 1182.67 127.897"></polygon>
            <polygon id="Path" fill="#FFFFFF" points="1182.67 136.727 1081.08 136.727 1081.08 141.692 1182.67 141.692"></polygon>
            <polygon id="Path" fill="#AECBC7" points="1469.08 791.804 308.04 791.804 308.04 806.075 1469.08 806.075"></polygon>
            <path d="M923.833,495.505 L923.833,480.015 L909.886,476.409 L899.199,463.671 L901.984,456.05 L816.855,358.777 L461.251,358.777 C457.764,358.777 454.936,361.606 454.936,365.092 L454.936,376.092 L455.022,376.157 C455.238,377.927 455.961,379.709 457.278,381.274 L551.614,493.713 C558.469,501.874 568.584,506.602 579.249,506.602 L913.966,506.602 C919.439,506.602 923.282,502.457 923.833,497.772 C923.919,497.038 923.919,496.272 923.833,495.505 Z" id="Path" fill="#B6D5D0"></path>
            <path d="M913.978,491.124 L579.25,491.124 C568.585,491.124 558.47,486.406 551.615,478.235 L457.268,365.806 C451.86,359.362 456.437,349.527 464.857,349.527 L799.584,349.527 C810.25,349.527 820.364,354.245 827.219,362.416 L921.566,474.845 C926.975,481.29 922.387,491.124 913.978,491.124 Z" id="Path" fill="#FFFFFF"></path>
            <path d="M872.276,466.39 C871.617,466.39 871.002,466.099 870.581,465.602 L805.531,388.322 C804.311,386.875 805.337,384.673 807.226,384.673 C807.884,384.673 808.499,384.964 808.92,385.461 L873.97,462.741 C875.19,464.177 874.165,466.39 872.276,466.39 Z" id="Path" fill="#B2E5E0"></path>
            <path d="M617.873,434.167 L542.611,434.167 C540.841,434.167 539.157,433.379 538.023,432.019 L501.116,387.738 C499.863,386.238 500.932,383.971 502.875,383.971 L578.137,383.971 C579.907,383.971 581.591,384.759 582.725,386.119 L619.633,430.399 C620.885,431.9 619.816,434.167 617.873,434.167 Z" id="Path" fill="#DCECEB"></path>
            <path d="M581.332,467.145 L570.235,467.145 C568.465,467.145 566.791,466.368 565.658,465.008 L552.013,448.719 C550.761,447.218 551.819,444.951 553.773,444.951 L564.87,444.951 C566.64,444.951 568.313,445.728 569.447,447.089 L583.092,463.378 C584.344,464.868 583.286,467.145 581.332,467.145 Z" id="Path" fill="#B2E5E0"></path>
            <path d="M613.416,467.145 L602.319,467.145 C600.549,467.145 598.875,466.368 597.742,465.008 L584.097,448.719 C582.845,447.218 583.903,444.951 585.857,444.951 L596.954,444.951 C598.724,444.951 600.397,445.728 601.531,447.089 L615.176,463.378 C616.428,464.868 615.37,467.145 613.416,467.145 Z" id="Path" fill="#B2E5E0"></path>
            <path d="M645.498,467.145 L634.401,467.145 C632.631,467.145 630.958,466.368 629.824,465.008 L616.18,448.719 C614.927,447.218 615.985,444.951 617.939,444.951 L629.036,444.951 C630.807,444.951 632.48,445.728 633.613,447.089 L647.258,463.378 C648.51,464.868 647.452,467.145 645.498,467.145 Z" id="Path" fill="#B2E5E0"></path>
            <path d="M705.129,405.052 L620.108,405.052 C618.349,405.052 616.675,404.275 615.542,402.925 L602.815,387.759 C601.563,386.258 602.621,383.98 604.574,383.98 L689.595,383.98 C691.354,383.98 693.028,384.758 694.161,386.107 L706.888,401.274 C708.141,402.774 707.083,405.052 705.129,405.052 Z" id="Path" fill="#DCECEB"></path>
            <path d="M731.155,436.069 L646.134,436.069 C644.375,436.069 642.701,435.291 641.568,433.942 L628.841,418.775 C627.589,417.286 628.646,414.997 630.6,414.997 L715.621,414.997 C717.38,414.997 719.054,415.774 720.187,417.124 L732.914,432.29 C734.166,433.791 733.098,436.069 731.155,436.069 Z" id="Path" fill="#DCECEB"></path>
            <path d="M757.235,467.146 L672.215,467.146 C670.455,467.146 668.782,466.369 667.648,465.019 L654.921,449.852 C653.669,448.363 654.727,446.074 656.681,446.074 L741.701,446.074 C743.461,446.074 745.134,446.851 746.268,448.201 L758.995,463.368 C760.247,464.868 759.189,467.146 757.235,467.146 Z" id="Path" fill="#DCECEB"></path>
            <path d="M794.704,466.39 C794.046,466.39 793.43,466.099 793.009,465.602 L727.96,388.322 C726.74,386.875 727.765,384.673 729.654,384.673 C730.313,384.673 730.928,384.964 731.349,385.461 L796.399,462.741 C797.619,464.177 796.593,466.39 794.704,466.39 Z" id="Path" fill="#B2E5E0"></path>
            <path d="M746.634,401.331 L737.373,401.331 C736.034,401.331 734.048,400.252 732.925,398.913 L729.557,394.908 C728.434,393.57 728.607,392.49 729.946,392.49 L739.208,392.49 C740.546,392.49 742.532,393.57 743.655,394.908 L747.023,398.913 C748.146,400.252 747.973,401.331 746.634,401.331 Z" id="Path" fill="#B2E5E0"></path>
            <path d="M747.271,399.183 L738.009,399.183 C736.67,399.183 734.684,398.103 733.561,396.765 L730.193,392.76 C729.071,391.421 729.243,390.342 730.582,390.342 L739.844,390.342 C741.182,390.342 743.169,391.421 744.291,392.76 L747.659,396.765 C748.782,398.103 748.598,399.183 747.271,399.183 Z" id="Path" fill="#DCECEB"></path>
            <path d="M840.81,421.4 L831.548,421.4 C830.21,421.4 828.223,420.32 827.101,418.981 L823.733,414.977 C822.61,413.638 822.783,412.559 824.121,412.559 L833.383,412.559 C834.722,412.559 836.708,413.638 837.831,414.977 L841.199,418.981 C842.311,420.32 842.138,421.4 840.81,421.4 Z" id="Path" fill="#B2E5E0"></path>
            <path d="M841.437,419.261 L832.175,419.261 C830.837,419.261 828.85,418.181 827.728,416.843 L824.36,412.838 C823.237,411.499 823.41,410.42 824.748,410.42 L834.01,410.42 C835.349,410.42 837.335,411.499 838.458,412.838 L841.826,416.843 C842.949,418.171 842.776,419.261 841.437,419.261 Z" id="Path" fill="#DCECEB"></path>
            <path d="M833.836,466.39 C833.178,466.39 832.562,466.099 832.141,465.602 L767.091,388.322 C765.872,386.875 766.897,384.673 768.786,384.673 C769.445,384.673 770.06,384.964 770.481,385.461 L835.531,462.741 C836.751,464.177 835.725,466.39 833.836,466.39 Z" id="Path" fill="#B2E5E0"></path>
            <path d="M824.573,447.59 L815.311,447.59 C813.973,447.59 811.987,446.51 810.864,445.172 L807.496,441.167 C806.373,439.829 806.546,438.749 807.885,438.749 L817.147,438.749 C818.485,438.749 820.472,439.829 821.594,441.167 L824.962,445.172 C826.085,446.5 825.912,447.59 824.573,447.59 Z" id="Path" fill="#B2E5E0"></path>
            <path d="M825.21,445.442 L815.948,445.442 C814.61,445.442 812.623,444.362 811.501,443.023 L808.133,439.019 C807.01,437.68 807.183,436.601 808.521,436.601 L817.783,436.601 C819.122,436.601 821.108,437.68 822.231,439.019 L825.599,443.023 C826.722,444.362 826.549,445.442 825.21,445.442 Z" id="Path" fill="#DCECEB"></path>
            <path d="M934.672,564.451 C934.672,564.451 929.307,581.075 910.178,595.67 C900.927,602.74 888.459,609.336 871.813,613.352 C820.775,625.69 779.906,621.232 776.948,621.718 C774.314,622.149 799.768,662.382 814.093,686.53 C815.874,689.531 817.483,692.273 818.843,694.669 C819.015,694.961 819.167,695.252 819.328,695.533 C830.998,716.507 824.758,721.775 824.758,721.775 C812.927,723.254 796.659,736.564 796.659,736.564 C772.015,742.977 757.226,704.525 743.419,688.257 C729.612,671.989 694.119,623.682 709.901,597.559 C725.672,571.435 865.93,537.906 865.93,537.906 L879.909,543.304 L906.281,553.483 L934.672,564.451 Z" id="Path" fill="#376F92"></path>
            <path d="M818.854,694.694 C819.026,694.986 819.177,695.277 819.339,695.558 C819.145,695.32 818.983,695.029 818.854,694.694 Z" id="Path" fill="#1B5175"></path>
            <path d="M919.882,582.158 C919.806,582.342 916.114,587.566 910.177,595.684 C900.926,602.755 888.458,609.35 871.812,613.366 C820.774,625.705 779.905,621.246 776.947,621.732 C774.313,622.164 799.767,662.397 814.092,686.545 C805.499,676.203 791.919,674.843 781.761,654.16 C769.434,629.062 740.352,655.11 735.041,634.405 C729.73,613.701 750.219,615.18 780.283,601.87 C810.357,588.56 815.28,593.979 842.547,588.549 C869.826,583.119 865.541,549.666 865.541,549.666 L879.898,543.329 L899.879,540.749 C899.879,540.749 902.718,546.384 906.27,553.509 C912.228,565.448 920.141,581.532 919.882,582.158 Z" id="Path" fill="#1B5175"></path>
            <path d="M831.828,731.828 C831.828,731.828 846.024,743.681 846.348,752.684 C846.671,761.687 816.467,792.193 816.467,792.193 L778.156,792.193 C778.156,792.193 774.054,785.91 784.655,781.398 C795.255,776.897 796.313,776.627 800.297,772.384 C804.269,768.142 807.723,756.743 814.082,744.814 C820.44,732.886 831.828,731.828 831.828,731.828 Z" id="Path" fill="#0C1B3C"></path>
            <path d="M845.884,267.345 C845.884,267.345 836.913,261.829 833.923,255.621 C830.933,249.414 823.344,235.845 822.89,232.628 C822.437,229.412 828.871,232.855 832.552,239.3 C832.552,239.3 830.026,232.402 825.427,223.431 C820.829,214.461 813.467,208.944 815.312,204.572 C817.148,200.201 830.49,216.76 832.099,219.523 C833.707,222.287 836.924,219.297 841.069,221.359 C845.203,223.431 845.203,221.132 849.349,223.658 C853.483,226.184 857.045,231.322 861.363,253.938 L845.884,267.345 Z" id="Path" fill="#E9928B"></path>
            <path d="M740.179,439.557 C740.179,439.557 735.321,437.883 727.107,429.982 C718.902,422.08 714.034,419.197 711.303,417.978 C708.572,416.758 704.157,415.398 699.601,415.7 C695.046,416.002 692.606,413.876 693.675,412.354 C694.744,410.831 698.997,409.774 698.997,409.774 C698.997,409.774 690.641,410.529 692.768,406.729 C694.895,402.93 706.899,404.452 706.899,404.452 C706.899,404.452 709.176,401.569 712.371,401.569 C715.567,401.569 715.254,398.989 721.644,399.745 C728.024,400.501 731.371,404.301 738.053,405.823 C744.735,407.345 750.261,421.249 750.261,421.249 L740.179,439.557 Z" id="Path" fill="#E9928B"></path>
            <path d="M750.23,419.704 C750.23,419.704 739.489,429.193 736.208,439.221 L735.053,442.179 L741.292,450.891 L755.757,423.288 L750.23,419.704 Z" id="Path" fill="#93405E"></path>
            <path d="M844.74,275.928 L839.569,267.799 C839.569,267.799 849.673,255.968 862.735,252.514 L865.952,258.181 L844.74,275.928 Z" id="Path" fill="#93405E"></path>
            <path d="M999.591,380.887 L960.287,401.743 L954.447,404.841 C954.447,404.841 952.364,403.794 948.953,402.013 C937.812,396.162 912.509,382.388 899.696,371.323 C893.737,366.184 883.859,353.857 873.594,340.093 C854.994,315.168 835.121,285.557 835.121,285.557 C849.413,263.374 865.94,255.979 865.94,255.979 C865.94,255.979 910.458,318.59 917.356,324.505 C921.393,327.971 948.812,346.657 970.899,361.586 C986.594,372.186 999.591,380.887 999.591,380.887 Z" id="Path" fill="#67A4C3"></path>
            <path d="M999.592,380.886 L960.288,401.741 C956.801,401.817 952.947,401.914 948.964,402.011 C937.824,396.16 912.521,382.386 899.707,371.321 C893.748,366.183 883.871,353.855 873.605,340.092 C881.766,344.345 889.819,348.08 894.504,352.117 C904.694,360.937 901.736,350.142 947.096,356.381 C956.056,357.612 963.98,359.436 970.921,361.563 C986.595,372.185 999.592,380.886 999.592,380.886 Z" id="Path" fill="#4F91B3"></path>
            <path d="M968.221,374.603 C968.221,374.603 934.207,395.47 934.131,382.332 C934.109,377.928 933.31,374.118 932.263,371.019 C930.191,364.866 927.136,361.455 927.136,361.455 C927.136,361.455 927.125,361.466 927.114,361.488 C914.97,374.431 909.551,370.329 908.072,367.867 C906.593,365.406 896.565,344.702 898.044,337.793 C899.523,330.895 899.199,326.782 897.061,322.507 C894.935,318.243 898.044,307.891 898.044,307.891 L926.974,301.803 C926.974,301.803 953.756,329.081 956.055,338.279 C958.355,347.487 968.221,374.603 968.221,374.603 Z" id="Path" fill="#E9928B"></path>
            <path d="M1006.67,463.994 C997.799,490.615 949.535,579.51 924.275,582.047 C913.977,583.083 900.688,576.358 888.576,568.025 C870.981,555.924 855.836,540.444 855.836,540.444 C878.019,524.716 875.061,475.124 875.061,475.124 C875.061,475.124 875.061,475.135 875.05,475.145 C874.565,475.545 843.346,501.474 822.415,503.914 C801.311,506.375 733.087,459.05 733.087,459.05 C733.087,459.05 748.372,420.599 755.767,422.078 C763.161,423.557 811.965,455.11 820.32,455.596 C828.676,456.093 876.044,413.69 887.832,401.859 C899.63,390.028 946.037,371.785 978.573,371.299 C978.573,371.299 999.774,374.753 1007.17,390.524 C1014.55,406.317 1015.55,437.374 1006.67,463.994 Z" id="Path" fill="#67A4C3"></path>
            <path d="M912.163,278.626 C896.716,280.483 882.046,291.926 886.784,303.401 C891.523,314.865 900.775,316.246 906.701,316.322 C912.627,316.398 914.592,319.917 916.665,323.123 C918.737,326.329 919.655,324.343 922.257,319.15 C924.858,313.947 930.817,317.671 930.968,324.677 C931.119,331.683 929.899,348.664 942.432,348.966 C954.965,349.268 957.415,344.076 957.88,344.076 C958.344,344.076 968.577,323.134 967.822,304.782 C967.822,304.782 980.819,298.057 978.368,287.349 C975.918,276.651 961.852,274.503 953.443,283.139 C953.443,283.139 946.405,283.516 939.831,279.091 C933.256,274.654 924.383,272.517 920.259,275.118 C916.136,277.709 915.985,278.162 912.163,278.626 Z" id="Path" fill="#0C1B3C"></path>
            <polygon id="Path" fill="#F0D1AA" points="923.186 631.133 909.984 631.133 909.984 781.138 923.186 781.138"></polygon>
            <polygon id="Path" fill="#EDBF84" points="923.186 781.138 916.58 781.138 916.58 631.133 923.186 630.723"></polygon>
            <path d="M968.837,792.235 L864.321,792.235 C864.321,789.169 865.562,786.406 867.57,784.398 C869.578,782.39 872.352,781.147985 875.418,781.147985 L957.74,781.147985 C963.871,781.138 968.837,786.103 968.837,792.235 Z" id="Path" fill="#EDBF84"></path>
            <path d="M935.492,792.235 L864.332,792.235 C864.332,789.169 865.573,786.406 867.581,784.398 C869.589,782.39 872.363,781.148 875.429,781.148 L916.59,781.148 L935.492,792.235 Z" id="Path" fill="#F0D1AA"></path>
            <path d="M1046.28,473.742 C1045.34,474.174 1044.42,474.638 1043.53,475.134 C1043.24,475.296 1042.94,475.458 1042.66,475.62 C1042.37,475.782 1042.09,475.944 1041.81,476.117 C1041.53,476.279 1041.25,476.451 1040.97,476.635 C1040.71,476.797 1040.45,476.959 1040.2,477.121 C1039.9,477.315 1039.61,477.509 1039.33,477.714 C1039.06,477.898 1038.79,478.081 1038.52,478.276 C1038.25,478.47 1037.98,478.664 1037.72,478.859 C1036.83,479.517 1035.96,480.208 1035.11,480.92 C1034.79,481.18 1034.49,481.439 1034.19,481.709 C1033.11,482.659 1032.06,483.652 1031.06,484.688 L1031.03,484.72 C1030.62,485.141 1030.21,485.573 1029.8,486.016 C1029.74,486.081 1029.68,486.156 1029.61,486.221 C1029.21,486.653 1028.82,487.095 1028.44,487.549 C1028,488.045 1027.59,488.542 1027.18,489.049 C1027.16,489.081 1027.13,489.114 1027.11,489.146 C1026.72,489.621 1026.34,490.107 1025.97,490.593 C1025.58,491.1 1025.19,491.618 1024.81,492.147 C1024.79,492.18 1024.77,492.201 1024.74,492.234 C1024.37,492.752 1024,493.27 1023.64,493.799 C1023.25,494.349 1022.89,494.9 1022.52,495.461 C1022.52,495.461 1022.52,495.472 1022.51,495.472 C1022.19,495.969 1021.87,496.465 1021.56,496.972 C1021.47,497.113 1021.39,497.253 1021.3,497.393 C1021.22,497.512 1021.14,497.642 1021.06,497.771 C1020.48,498.721 1019.92,499.682 1019.37,500.664 C1018.7,501.852 1018.04,503.072 1017.42,504.302 C1017.1,504.918 1016.79,505.544 1016.49,506.17 C1016.17,506.796 1015.87,507.422 1015.58,508.059 C1014.99,509.333 1014.4,510.617 1013.84,511.923 C1013.56,512.571 1013.28,513.23 1013.01,513.888 C1012.73,514.547 1012.46,515.216 1012.2,515.874 C1011.96,516.446 1011.75,517.019 1011.52,517.602 C1011.23,518.368 1010.94,519.134 1010.65,519.912 C1010.39,520.592 1010.15,521.261 1009.9,521.952 C1009.87,522.027 1009.85,522.114 1009.81,522.189 C1009.6,522.794 1009.38,523.398 1009.18,524.003 C1008.69,525.406 1008.21,526.82 1007.74,528.245 C1007.53,528.904 1007.31,529.573 1007.11,530.232 C1006.89,530.933 1006.67,531.624 1006.45,532.326 C1006.04,533.653 1005.64,534.97 1005.25,536.298 C1005.23,536.374 1005.21,536.46 1005.18,536.536 C1004.97,537.237 1004.77,537.95 1004.57,538.652 C1004.56,538.662 1004.56,538.673 1004.56,538.684 C1004.36,539.375 1004.16,540.076 1003.96,540.767 C1003.7,541.663 1003.47,542.559 1003.22,543.455 C1003.08,543.963 1002.94,544.481 1002.81,544.988 C1002.73,545.269 1002.66,545.56 1002.57,545.841 C1002.07,547.665 1001.6,549.49 1001.12,551.303 C1000.66,553.073 1000.21,554.833 999.754,556.571 C999.559,557.316 999.365,558.05 999.182,558.795 C998.588,561.116 997.994,563.415 997.411,565.671 C997.228,566.33 997.066,566.999 996.893,567.657 C996.58,568.856 996.256,570.043 995.943,571.209 C995.749,571.932 995.555,572.666 995.349,573.379 C994.637,575.959 993.924,578.463 993.18,580.892 C993.018,581.442 992.845,581.993 992.683,582.533 C992.564,582.921 992.435,583.299 992.316,583.688 C992.219,584.012 992.111,584.346 992.003,584.659 C991.658,585.717 991.312,586.764 990.945,587.779 C990.567,588.88 990.179,589.949 989.779,590.996 C989.758,591.05 989.736,591.104 989.725,591.158 C989.542,591.633 989.358,592.086 989.175,592.55 C989.013,592.95 988.851,593.349 988.689,593.738 C988.646,593.835 988.603,593.954 988.559,594.051 C988.376,594.504 988.171,594.947 987.977,595.4 C987.966,595.433 987.944,595.476 987.923,595.508 C987.707,595.983 987.491,596.458 987.275,596.922 C987.059,597.386 986.843,597.84 986.616,598.282 C986.454,598.617 986.292,598.941 986.12,599.265 C986.044,599.416 985.969,599.567 985.882,599.707 C985.666,600.096 985.461,600.474 985.245,600.852 C985.148,601.035 985.04,601.208 984.943,601.381 C984.814,601.607 984.673,601.834 984.533,602.061 C965.998,632.222 913.298,631.131 913.298,631.131 L835.888,631.131 C817.72,631.131 817.353,612.596 838.068,611.139 C858.783,609.682 899.124,585.696 917.292,533.006 C926.1,507.465 936.355,492.255 944.592,483.36 C951.587,475.793 961.497,471.583 971.795,471.583 L1045.79,471.583 C1047.02,471.583 1047.38,473.235 1046.28,473.742 Z" id="Path" fill="#F4C8AF"></path>
            <path d="M1043.53,475.135 C1043.24,475.297 1042.94,475.459 1042.66,475.621 C1042.37,475.783 1042.09,475.944 1041.81,476.117 C1041.53,476.279 1041.25,476.452 1040.97,476.635 C1040.71,476.797 1040.46,476.959 1040.2,477.121 C1039.9,477.315 1039.61,477.51 1039.33,477.715 C1039.05,477.898 1038.78,478.082 1038.52,478.276 C1038.25,478.47 1037.98,478.665 1037.72,478.859 C1036.83,479.518 1035.96,480.208 1035.11,480.921 C1034.79,481.18 1034.49,481.439 1034.19,481.709 C1033.11,482.659 1032.06,483.652 1031.06,484.688 L1031.03,484.721 C1030.62,485.142 1030.21,485.573 1029.8,486.016 C1029.74,486.081 1029.68,486.156 1029.61,486.221 C1029.21,486.653 1028.82,487.095 1028.44,487.549 C1028,488.045 1027.59,488.542 1027.18,489.049 C1027.16,489.082 1027.13,489.114 1027.11,489.146 C1026.73,489.621 1026.34,490.107 1025.97,490.593 C1025.59,491.111 1025.19,491.629 1024.81,492.148 C1024.79,492.18 1024.77,492.202 1024.74,492.234 C1024.38,492.752 1024,493.27 1023.64,493.799 C1023.26,494.35 1022.9,494.9 1022.52,495.462 C1022.52,495.462 1022.52,495.472 1022.51,495.472 C1022.2,495.969 1021.87,496.465 1021.56,496.973 C1021.47,497.113 1021.39,497.253 1021.3,497.394 C1021.22,497.513 1021.15,497.642 1021.07,497.772 L1021.06,497.772 C1020.48,498.722 1019.92,499.682 1019.37,500.665 C1018.7,501.852 1018.04,503.072 1017.42,504.303 C1017.1,504.918 1016.79,505.533 1016.49,506.17 C1016.18,506.796 1015.87,507.422 1015.58,508.059 C1014.99,509.333 1014.4,510.618 1013.84,511.924 C1013.56,512.571 1013.28,513.23 1013.01,513.888 C1012.73,514.547 1012.46,515.216 1012.2,515.875 C1011.96,516.447 1011.75,517.019 1011.52,517.602 C1011.23,518.368 1010.94,519.135 1010.65,519.912 C1010.4,520.592 1010.15,521.261 1009.9,521.952 C1009.87,522.028 1009.85,522.114 1009.81,522.19 C1009.6,522.794 1009.38,523.399 1009.18,524.003 C1008.69,525.407 1008.21,526.821 1007.74,528.246 C1007.53,528.904 1007.32,529.573 1007.1,530.232 C1006.89,530.934 1006.67,531.624 1006.45,532.326 C1006.04,533.654 1005.64,534.982 1005.25,536.299 C1005.23,536.374 1005.21,536.46 1005.18,536.536 C1004.98,537.238 1004.77,537.95 1004.57,538.652 C1004.56,538.663 1004.56,538.673 1004.56,538.684 C1004.36,539.375 1004.17,540.066 1003.96,540.768 C1003.7,541.664 1003.47,542.56 1003.22,543.456 C1003.08,543.974 1002.94,544.481 1002.81,544.988 C1002.73,545.269 1002.66,545.561 1002.57,545.841 C1002.09,547.666 1001.6,549.49 1001.12,551.303 C1000.66,553.074 1000.21,554.833 999.754,556.571 C999.559,557.316 999.376,558.061 999.181,558.795 C998.588,561.116 997.994,563.415 997.411,565.671 C997.238,566.341 997.066,566.999 996.893,567.658 C996.58,568.856 996.256,570.043 995.943,571.209 C995.749,571.932 995.554,572.666 995.349,573.379 C994.637,575.959 993.924,578.463 993.18,580.892 C993.018,581.443 992.845,581.993 992.683,582.533 C992.564,582.922 992.435,583.299 992.316,583.688 C992.219,584.012 992.111,584.347 992.003,584.66 C991.658,585.718 991.312,586.765 990.945,587.779 C990.567,588.88 990.179,589.949 989.779,590.996 C989.758,591.05 989.736,591.104 989.725,591.158 C989.542,591.633 989.358,592.086 989.175,592.551 C989.013,592.95 988.851,593.349 988.689,593.738 C988.646,593.835 988.602,593.954 988.559,594.051 C988.376,594.505 988.171,594.947 987.976,595.401 C987.966,595.433 987.944,595.476 987.922,595.508 C987.707,595.983 987.491,596.458 987.275,596.923 C987.059,597.387 986.843,597.84 986.616,598.283 C986.454,598.617 986.292,598.941 986.12,599.265 C986.044,599.416 985.969,599.567 985.882,599.708 C985.666,600.096 985.461,600.474 985.245,600.852 C985.008,601.262 984.77,601.662 984.533,602.061 C965.998,632.222 913.297,631.132 913.297,631.132 L840.788,631.132 C835.618,627.094 838.133,620.93 851.885,619.959 C872.601,618.502 917.356,589.258 935.535,536.558 C944.344,511.017 954.599,495.807 962.835,486.912 C969.83,479.345 979.729,475.135 990.038,475.135 L1043.53,475.135 L1043.53,475.135 Z" id="Path" fill="#F7DFD3"></path>
            <path d="M1021.05,497.782 C1020.47,498.732 1019.91,499.693 1019.36,500.675 C1018.69,501.863 1018.03,503.083 1017.42,504.313 C1017.09,504.928 1016.78,505.544 1016.48,506.181 C1016.17,506.807 1015.86,507.433 1015.57,508.07 C1014.98,509.344 1014.39,510.628 1013.83,511.934 C1013.55,512.582 1013.27,513.241 1013,513.899 C1012.72,514.558 1012.45,515.227 1012.19,515.885 C1011.95,516.457 1011.74,517.03 1011.51,517.613 C1011.22,518.379 1010.93,519.145 1010.64,519.923 C1010.39,520.603 1010.14,521.272 1009.89,521.963 C1009.86,522.038 1009.84,522.125 1009.8,522.2 C1009.59,522.805 1009.37,523.409 1009.17,524.014 C1008.68,525.417 1008.2,526.831 1007.73,528.256 C1007.52,528.915 1007.31,529.584 1007.1,530.242 C1006.88,530.944 1006.66,531.635 1006.44,532.337 C1006.03,533.664 1005.63,534.992 1005.24,536.309 C1005.22,536.385 1005.2,536.471 1005.17,536.547 C1004.97,537.248 1004.76,537.961 1004.56,538.663 C1004.55,538.673 1004.55,538.684 1004.55,538.695 C1004.35,539.386 1004.16,540.077 1003.95,540.778 C1003.69,541.674 1003.46,542.57 1003.21,543.466 C1003.07,543.984 1002.93,544.492 1002.8,544.999 C1002.72,545.28 1002.65,545.571 1002.56,545.852 C1002.08,547.676 1001.59,549.501 1001.11,551.314 C1000.65,553.084 1000.2,554.844 999.744,556.582 C999.55,557.327 999.366,558.072 999.172,558.806 C998.578,561.127 997.985,563.426 997.402,565.682 C997.229,566.351 997.056,567.01 996.883,567.668 C996.57,568.867 996.247,570.054 995.934,571.22 C995.739,571.943 995.545,572.677 995.34,573.39 C994.627,575.97 993.915,578.474 993.17,580.903 C993.008,581.453 992.835,582.004 992.673,582.544 C992.555,582.932 992.425,583.31 992.306,583.699 C992.209,584.023 992.101,584.357 991.993,584.67 C991.648,585.728 991.303,586.775 990.935,587.79 C990.558,588.891 990.169,589.96 989.77,591.007 C989.748,591.061 989.726,591.115 989.716,591.169 C989.532,591.644 989.349,592.097 989.165,592.561 C989.003,592.961 988.841,593.36 988.679,593.749 C988.636,593.846 988.593,593.965 988.55,594.062 C988.366,594.515 988.161,594.958 987.967,595.411 C987.956,595.444 987.934,595.487 987.913,595.519 C987.697,595.994 987.481,596.469 987.265,596.933 C987.049,597.397 986.833,597.851 986.607,598.293 C986.445,598.628 986.283,598.952 986.11,599.276 C986.035,599.427 985.959,599.578 985.873,599.718 C985.657,600.107 985.452,600.485 985.236,600.863 C985.139,601.046 985.031,601.219 984.933,601.392 C984.804,601.618 984.664,601.845 984.523,602.072 C965.988,632.233 913.288,631.142 913.288,631.142 L887.812,631.142 C890.489,630.98 939.984,628.605 957.633,554.617 C969.572,504.648 1001.96,501.679 1021.05,497.782 Z" id="Path" fill="#F4C8AF"></path>
            <path d="M487.591,630.408 L487.591,579.748 C487.591,563.955 474.788,551.152 458.995,551.152 L422.843,551.152 L422.843,792.094 L469.186,792.094 L487.591,792.094 L544.771,792.094 L544.771,687.589 C544.771,671.796 531.969,658.993 516.176,658.993 C500.394,659.004 487.591,646.201 487.591,630.408 Z" id="Path" fill="#DCECEB"></path>
            <path d="M479.883,730.912 C468.851,709.862 455.551,694.846 433.918,677.855 C412.296,660.864 383.96,660.788 372.398,655.315 C360.826,649.831 360.535,665.009 364.129,679.258 C367.724,693.507 356.81,759.119 422.53,779.974 C488.238,800.841 488.033,746.446 479.883,730.912 Z" id="Path" fill="#F2D6C8"></path>
            <path d="M438.376,745.065 C437.891,745.065 437.47,744.709 437.405,744.213 C434.253,720.982 445.771,698.032 445.89,697.806 C446.138,697.32 446.732,697.125 447.217,697.374 C447.703,697.622 447.898,698.216 447.649,698.702 C447.531,698.928 436.304,721.349 439.359,743.943 C439.434,744.483 439.057,744.979 438.517,745.055 C438.463,745.065 438.42,745.065 438.376,745.065 Z" id="Path" fill="#F5B89B"></path>
            <path d="M438.549,747.665 C438.398,747.665 438.236,747.633 438.096,747.557 C418.514,737.27 384.477,740.951 384.132,740.994 C383.592,741.048 383.106,740.67 383.042,740.12 C382.977,739.58 383.366,739.094 383.916,739.03 C385.341,738.868 418.902,735.24 439.013,745.809 C439.499,746.057 439.682,746.662 439.423,747.137 C439.24,747.471 438.905,747.665 438.549,747.665 Z" id="Path" fill="#F5B89B"></path>
            <path d="M444.691,766.556 C444.249,766.556 443.838,766.253 443.73,765.8 C429.621,707.518 373.693,666.336 373.132,665.926 C372.689,665.602 372.592,664.987 372.916,664.544 C373.24,664.101 373.855,664.004 374.298,664.328 C374.87,664.738 431.37,706.353 445.652,765.336 C445.781,765.865 445.458,766.394 444.929,766.523 C444.853,766.545 444.767,766.556 444.691,766.556 Z" id="Path" fill="#F5B89B"></path>
            <path d="M418.276,711.892 C418.06,711.892 417.845,711.816 417.661,711.676 C404.891,701.453 374.028,704.12 373.726,704.152 C373.175,704.217 372.7,703.796 372.657,703.256 C372.603,702.716 373.003,702.231 373.553,702.187 C374.849,702.069 405.506,699.424 418.903,710.132 C419.324,710.478 419.399,711.093 419.054,711.514 C418.859,711.763 418.568,711.892 418.276,711.892 Z" id="Path" fill="#F5B89B"></path>
            <path d="M408.032,698.905 C407.643,698.905 407.287,698.678 407.125,698.3 C403.12,688.779 405.236,672.684 405.322,672.004 C405.398,671.464 405.873,671.086 406.434,671.162 C406.974,671.238 407.351,671.734 407.276,672.274 C407.254,672.436 405.149,688.52 408.938,697.534 C409.154,698.03 408.917,698.613 408.409,698.829 C408.291,698.872 408.161,698.905 408.032,698.905 Z" id="Path" fill="#F5B89B"></path>
            <path d="M1420.16,376.522 C1419.16,377.828 1417.99,378.81 1416.71,379.512 C1406.05,385.374 1386.91,372.614 1378.17,373.024 C1368.37,373.499 1363.7,386.324 1340.6,377.224 C1317.51,368.124 1322.88,332.209 1324.28,318.672 C1325.68,305.146 1317.28,298.378 1302.82,298.842 C1288.36,299.317 1273.1,291.383 1279.68,268.519 C1286.26,245.667 1267.72,233.673 1256.64,237.732 C1245.55,241.791 1251.5,222.339 1251.5,222.339 C1251.5,222.339 1260.97,208.856 1279.68,210.81 C1285.54,211.425 1289.77,213.357 1293,216.034 C1293,216.034 1293.01,216.034 1293.02,216.056 C1293.76,216.682 1294.46,217.352 1295.11,218.042 C1295.12,218.064 1295.14,218.075 1295.15,218.096 C1300.56,223.958 1302.68,232.151 1306.1,238.423 C1311.7,248.689 1321.03,247.987 1335.5,243.561 C1349.96,239.125 1379.11,241.176 1385.41,265.346 C1391.71,289.515 1374.92,317.744 1405.01,324.75 C1435.09,331.723 1429.49,364.388 1420.16,376.522 Z" id="Path" fill="#0C1B3C"></path>
            <path d="M1252.63,220.408 C1252.63,220.408 1261.36,226.162 1260.36,237.831 C1260.36,237.831 1260.37,241.199 1256.54,239.472 C1252.7,237.745 1249.59,225.104 1249.92,222.384 C1250.26,219.653 1251.67,220.085 1252.63,220.408 Z" id="Path" fill="#3FB8A9"></path>
            <path d="M1248.95,272.481 C1235.58,284.139 1229.01,283.33 1225.12,277.609 C1223.66,275.482 1219.62,270.203 1215.12,264.428 C1207.56,254.702 1198.72,243.561 1198.72,243.561 C1198.72,243.561 1184.72,242.676 1184.42,231.849 C1184.37,229.776 1184.76,227.704 1185.59,225.696 C1189.04,217.19 1199.99,209.828 1215.22,208.575 C1234.04,207.021 1251.14,216.358 1256.12,229.42 C1261.07,242.471 1262.33,260.822 1248.95,272.481 Z" id="Path" fill="#0C1B3C"></path>
            <g id="Group" opacity="0.52" transform="translate(1184.000000, 218.000000)" fill="#1B5175">
                <path d="M31.12,46.427 C23.56,36.7 14.72,25.56 14.72,25.56 C14.72,25.56 0.72,24.675 0.42,13.848 C0.37,11.775 0.76,9.702 1.59,7.695 C4.37,3.344 9.6,-0.402 19.39,0.829 C40.38,3.474 30.64,38.546 35.82,42.238 C37.72,43.598 35.15,45.088 31.12,46.427 Z" id="Path"></path>
            </g>
            <path d="M1140.73,480.325 C1140.73,480.325 1133.31,482.506 1129.66,485.258 C1126.01,488.011 1117.14,492.286 1116.96,493.722 C1116.79,495.157 1124.41,492.923 1127.41,491.757 C1130.41,490.591 1129.94,493.463 1126.2,497.003 C1122.47,500.544 1120.95,502.098 1116.65,505.369 C1112.34,508.651 1111.84,510.119 1113.5,510.713 C1115.15,511.307 1116.68,510.227 1116.68,510.227 C1116.68,510.227 1112.82,513.163 1114.35,514.804 C1115.88,516.445 1120.61,512.958 1120.61,512.958 C1120.61,512.958 1119.27,515.322 1122.53,515.247 C1125.79,515.171 1126.91,513.703 1130.76,512.569 C1134.61,511.436 1146.23,499.184 1148.93,494.92 C1151.63,490.656 1152.99,486.964 1152.99,486.964 L1140.73,480.325 Z" id="Path" fill="#FFAC95"></path>
            <path d="M1220.76,379.512 C1220.76,379.512 1227.87,415.048 1210.49,434.943 C1193.11,454.838 1153.47,491.228 1153.47,491.228 L1138.89,479.796 C1138.89,479.796 1174.59,432.558 1179.49,414.422 C1180.54,410.558 1181.51,403.131 1181.51,403.131 L1220.76,379.512 Z" id="Path" fill="#F5911F"></path>
            <path d="M1170.4,475.133 C1170.4,475.133 1169.3,471.031 1170.94,467.436 C1172.58,463.841 1180.38,474.604 1180.38,474.604 L1182.43,483.564 L1170.4,475.133 Z" id="Path" fill="#FFAC95"></path>
            <path d="M1362.98,719.084 C1369.64,726.252 1383.78,753.239 1383.78,753.239 L1373.31,760.849 C1373.31,760.849 1361.32,742.832 1358.83,743.912 C1356.34,744.991 1358.79,771.396 1355.46,773.814 C1352.12,776.232 1329.98,792.316 1329.98,792.316 C1329.98,792.316 1329.04,783.011 1333.35,774.418 C1337.17,766.819 1341.1,751.145 1331.11,727.515 C1329.82,724.449 1328.3,721.254 1326.5,717.929 L1349.5,696.501 C1349.5,696.501 1352.34,702.892 1356.12,709.347 C1358.21,712.931 1360.59,716.536 1362.98,719.084 Z" id="Path" fill="#1B5175"></path>
            <path d="M1326.5,717.94 L1349.5,696.513 C1349.5,696.513 1352.34,702.903 1356.12,709.358 L1331.11,727.516 C1329.82,724.461 1328.28,721.265 1326.5,717.94 Z" id="Path" fill="#E9928B"></path>
            <path d="M1368.12,691.353 L1317.11,726.199 C1317.11,726.199 1290.43,693.393 1266.76,663.243 C1250.98,643.111 1236.54,624.176 1232.31,616.944 C1223.77,602.371 1211.57,544.769 1207.2,523.169 C1206.16,518.03 1205.56,514.922 1205.56,514.922 L1211.81,497.38 L1223.94,463.322 L1224.84,460.796 C1224.84,460.796 1233.59,456.284 1243.34,453.866 C1245.93,453.218 1248.61,452.721 1251.19,452.495 C1259.14,451.815 1266.39,453.704 1268.65,461.789 C1268.78,462.264 1268.9,462.761 1269,463.279 C1269.45,465.697 1269.95,468.795 1270.47,472.39 C1274.86,503.004 1281.05,570.537 1282.99,578.126 C1285.18,586.61 1368.12,691.353 1368.12,691.353 Z" id="Path" fill="#5F6386"></path>
            <path d="M1266.76,663.245 C1250.98,643.112 1236.54,624.178 1232.31,616.946 C1223.77,602.373 1211.57,544.771 1207.2,523.171 C1208.41,518.335 1209.34,515.139 1209.8,514.448 C1212.42,510.508 1270.48,472.413 1270.48,472.413 C1270.48,472.413 1272.9,506.471 1261.39,528.201 C1249.88,549.942 1240.03,565.875 1249.23,589.289 C1258.43,612.714 1238.72,626.197 1254.49,639.334 C1263.61,646.934 1266.2,656.52 1266.76,663.245 Z" id="Path" fill="#4A4E73"></path>
            <path d="M1168.05,752.465 C1169.22,762.18 1164.81,792.33 1164.81,792.33 L1151.86,792.33 C1151.86,792.33 1152.75,770.708 1150.09,770.114 C1147.45,769.521 1133.91,792.33 1129.79,792.33 C1125.66,792.33 1098.3,792.33 1098.3,792.33 C1098.3,792.33 1103.01,784.245 1111.55,779.83 C1119.1,775.922 1131.49,765.548 1137.3,740.569 C1138.06,737.33 1138.71,733.844 1139.21,730.109 L1170.4,726.287 C1170.4,726.287 1168.94,733.12 1168.21,740.58 C1167.81,744.682 1167.62,749 1168.05,752.465 Z" id="Path" fill="#1B5175"></path>
            <path d="M1139.21,730.098 L1170.4,726.276 C1170.4,726.276 1168.94,733.11 1168.21,740.569 L1137.3,740.569 C1138.06,737.32 1138.7,733.844 1139.21,730.098 Z" id="Path" fill="#E9928B"></path>
            <path d="M1197.48,446.507 C1197.48,446.507 1152.7,551.638 1139.63,595.174 C1126.57,638.72 1106.67,732.646 1106.67,732.646 L1175.1,732.646 C1175.1,732.646 1201.84,605.127 1213.67,584.595 C1225.49,564.063 1269.65,489.416 1262.8,462.667 C1255.95,435.928 1197.48,446.507 1197.48,446.507 Z" id="Path" fill="#5F6386"></path>
            <path d="M1270.49,472.412 L1249.73,526.289 L1182.45,483.563 L1223.95,463.344 L1243.35,453.888 L1248.78,451.232 L1251.2,452.517 L1268.66,461.811 C1268.79,462.286 1268.91,462.783 1269.01,463.301 C1269.47,465.708 1269.96,468.806 1270.49,472.412 Z" id="Path" fill="#4A4E73"></path>
            <path d="M1235.43,304.716 C1235.43,304.716 1219.26,311.517 1205.57,330.181 C1191.88,348.845 1175.71,383.54 1174.47,390.136 C1173.23,396.731 1185.13,449.151 1185.09,462.677 C1185.05,476.203 1248.74,471.205 1266.78,462.494 C1266.78,462.494 1259.69,412.913 1259.69,406.069 C1259.69,399.225 1260.32,353.196 1256.58,332.049 C1252.84,310.901 1235.43,304.716 1235.43,304.716 Z" id="Path" fill="#FFAB40"></path>
            <path d="M1231.56,353.486 C1231.56,353.486 1229,370.51 1231.56,383.323 C1234.12,396.137 1214.13,388.343 1207.2,414.423 C1200.27,440.504 1259.6,427.852 1259.6,427.852 C1259.6,427.852 1275.95,402.711 1276.07024,398.436 C1276.19,394.172 1231.56,353.486 1231.56,353.486 Z" id="Path" fill="#F5911F"></path>
            <path d="M1235.43,304.716 C1235.43,304.716 1204.17,336.863 1206.92,328.4 C1208.43,323.737 1205.8,312.586 1203.12,303.507 C1200.93,296.091 1198.72,290.057 1198.72,290.057 C1198.72,290.057 1204.73,283.947 1211.02,278.733 C1217.68,273.206 1224.66,268.694 1225.12,273.573 C1226,283.062 1235.43,304.716 1235.43,304.716 Z" id="Path" fill="#FFAC95"></path>
            <polygon id="Path" fill="#3FB8A9" points="1154.51 369.406 1119.29 445.257 1250.18 506.024 1285.39 430.173"></polygon>
            <polygon id="Path" fill="#FFFFFF" points="1158.74 380.976 1130.86 441.023 1245.94 494.454 1273.82 434.406"></polygon>
            <polygon id="Path" fill="#3FB8A9" points="1142.66 447.596 1189.86 414.424 1194.98 471.885"></polygon>
            <polygon id="Path" fill="#3FB8A9" points="1192.55 470.871 1229.06 445.212 1233.02 489.665"></polygon>
            <path d="M1220.95,428.237 C1223.09,424.011 1221.41,418.846 1217.18,416.702 C1212.95,414.557 1207.79,416.246 1205.64,420.473 C1203.5,424.699 1205.19,429.864 1209.41,432.008 C1213.64,434.153 1218.81,432.464 1220.95,428.237 Z" id="Path" fill="#3FB8A9"></path>
            <path d="M1194.74,458.562 C1194.74,458.562 1188.65,459.426 1184.36,460.527 C1180.05,461.628 1171.58,461.024 1170.59,462.988 C1169.61,464.953 1180.11,466.68 1182.67,466.918 C1185.23,467.155 1178.71,470.761 1175.02,471.786 C1171.33,472.812 1168.38,474.291 1172.19,477.734 C1176,481.178 1181.91,486.338 1184.36,486.705 C1186.82,487.072 1198.86,477.972 1205.5,471.214 C1212.14,464.456 1194.74,458.562 1194.74,458.562 Z" id="Path" fill="#FFAC95"></path>
            <path d="M1236.04,316.178 C1224.31,325.16 1228.88,348.218 1234.8,363.147 C1240.71,378.076 1257.5,405.452 1256.26,407.935 C1255.02,410.429 1192.77,457.656 1192.77,457.656 L1205.56,473.719 C1205.56,473.719 1264.65,444.011 1279.28,433.443 C1293.89,422.864 1295.13,411.357 1290.78,396.428 C1286.43,381.498 1261.24,296.899 1236.04,316.178 Z" id="Path" fill="#FFAB40"></path>
            <path d="M1150.78,732.904 L1147.87,732.397 C1148.81,727.021 1170.94,600.721 1174.82,588.836 C1178.7,577.015 1209.14,500.113 1210.43,496.853 L1213.18,497.943 C1212.87,498.742 1181.47,578.019 1177.63,589.764 C1173.82,601.433 1151.02,731.587 1150.78,732.904 Z" id="Path" fill="#4A4E73"></path>
            <path d="M1345.64,706.845 C1345.18,706.263 1299.07,648.456 1274.91,618.565 C1250.54,588.404 1241.52,546.056 1241.43,545.635 L1244.32,545.03 C1244.41,545.451 1253.29,587.109 1277.21,616.697 C1301.37,646.588 1347.49,704.406 1347.95,704.989 L1345.64,706.845 Z" id="Path" fill="#4A4E73"></path>
            <g id="Group" opacity="0.52" transform="translate(1295.000000, 218.000000)" fill="#1B5175">
                <path d="M125.16,158.521 C124.16,159.827 122.99,160.81 121.71,161.511 C132.08,149.162 124.47,132.797 97.85,133.132 C71.23,133.456 64.01,110.452 79.78,72.335 C95.55,34.218 55.79,31.25 39.03,39.799 C22.26,48.349 5.17,40.458 5.83,21.966 C6.28,9.595 2.62,3.075 0.14,0.106 C5.55,5.968 7.67,14.161 11.09,20.433 C16.69,30.699 26.02,29.997 40.48,25.572 C54.95,21.135 84.1,23.186 90.4,47.356 C96.7,71.525 79.91,99.754 110,106.76 C140.09,113.723 134.49,146.388 125.16,158.521 Z" id="Path"></path>
            </g>
            <path d="M1219.87,277.307 C1219.87,277.307 1215.19,294.471 1203.12,303.506 C1200.93,296.09 1198.72,290.055 1198.72,290.055 C1198.72,290.055 1204.73,283.946 1211.02,278.732 L1219.87,277.307 Z" id="Path" fill="#E9928B"></path>
            <path d="M1199.65,232.834 C1199.65,232.834 1191.25,253.668 1183.32,257.716 C1175.39,261.764 1180.68,262.692 1183.32,267.204 C1185.97,271.717 1175.85,285.707 1184.56,292.087 C1193.27,298.466 1213.49,288.038 1219.86,277.308 C1219.86,277.308 1230.9,277.773 1233.55,269.374 C1236.19,260.976 1227.64,255.686 1222.67,259.421 C1217.69,263.156 1217.07,255.373 1214.9,243.715 C1212.71,232.056 1200.72,230.351 1199.65,232.834 Z" id="Path" fill="#FFAC95"></path>
            <path d="M308.04,791.805 C306.162,772.115 323.995,742.472 381.24,761.752 C381.24,761.752 395.705,716.564 435.473,718.065 C475.242,719.576 487.893,756.764 487.893,756.764 C487.893,756.764 541.317,750.309 548.949,795.497 C548.949,795.497 310.749,820.249 308.04,791.805 Z" id="Path" fill="#ADCCC7"></path>
            <path d="M426.774,795.195 L424.83,794.882 C429.99,762.875 410.149,739.904 409.944,739.677 L411.423,738.371 C411.628,738.619 432.074,762.282 426.774,795.195 Z" id="Path" fill="#6EAB9C"></path>
            <path d="M427.431,775.592 L425.92,774.318 C426.103,774.102 444.239,752.415 447.326,738.803 L449.248,739.235 C446.052,753.322 428.187,774.696 427.431,775.592 Z" id="Path" fill="#6EAB9C"></path>
            <path d="M426.589,786.981 C412.427,786.214 399.872,771.609 399.354,770.983 L400.854,769.709 C400.973,769.86 413.387,784.293 426.697,785.016 L426.589,786.981 Z" id="Path" fill="#6EAB9C"></path>
            <path d="M471.28,796.244 L469.995,794.754 C471.021,793.869 495.223,773.078 507.81,772.722 L507.864,774.697 C495.968,775.021 471.517,796.028 471.28,796.244 Z" id="Path" fill="#6EAB9C"></path>
            <path d="M518.616,792.173 C518.422,792.162 499.131,790.986 483.522,786.96 L484.019,785.049 C499.444,789.032 518.551,790.187 518.735,790.209 L518.616,792.173 Z" id="Path" fill="#6EAB9C"></path>
            <path d="M374.85,795.057 C362.101,784.456 335.222,775.993 334.952,775.907 L335.535,774.028 C336.657,774.374 363.062,782.697 376.113,793.545 L374.85,795.057 Z" id="Path" fill="#6EAB9C"></path>
            <path d="M364.93,786.863 L362.954,786.809 C363.267,776.057 358.582,767.605 358.539,767.518 L360.255,766.547 C360.471,766.914 365.264,775.539 364.93,786.863 Z" id="Path" fill="#6EAB9C"></path>
            <polygon id="Path" fill="#B6D5D0" points="941.072 150.264 594.027 156.179 587.129 150.264 587.129 36.2266 941.072 36.2266 947.97 42.1421"></polygon>
            <polygon id="Path" fill="#B6D5D0" points="941.073 25.627 594.028 31.5426 587.13 25.627 587.13 0 941.073 0 947.971 5.91557"></polygon>
            <polygon id="Path" fill="#DCECEB" points="947.971 42.1426 594.028 42.1426 594.028 156.18 947.971 156.18"></polygon>
            <polygon id="Path" fill="#EDF6F5" points="947.971 5.91602 594.028 5.91602 594.028 31.5538 947.971 31.5538"></polygon>
            <path d="M661.776,23.5214 C664.423,23.5214 666.569,21.3756 666.569,18.7285 C666.569,16.0815 664.423,13.9355 661.776,13.9355 C659.129,13.9355 656.983,16.0815 656.983,18.7285 C656.983,21.3756 659.129,23.5214 661.776,23.5214 Z" id="Path" fill="#67A4C3"></path>
            <path d="M644.008,18.7285 C644.008,21.3733 641.86,23.5214 639.215,23.5214 C636.571,23.5214 634.422,21.3733 634.422,18.7285 C634.422,16.0838 636.571,13.9355 639.215,13.9355 C641.871,13.9355 644.008,16.0838 644.008,18.7285 Z" id="Path" fill="#EB908B"></path>
            <path d="M616.654,23.5214 C619.301,23.5214 621.447,21.3756 621.447,18.7285 C621.447,16.0815 619.301,13.9355 616.654,13.9355 C614.007,13.9355 611.861,16.0815 611.861,18.7285 C611.861,21.3756 614.007,23.5214 616.654,23.5214 Z" id="Path" fill="#FFAA3F"></path>
            <path d="M876.818,47.7012 C851.644,47.7012 831.252,68.1034 831.252,93.2663 C831.252,118.429 851.655,138.832 876.818,138.832 C901.991,138.832 922.383,118.429 922.383,93.2663 C922.383,68.1034 901.991,47.7012 876.818,47.7012 Z M876.818,122.596 C860.614,122.596 847.488,109.459 847.488,93.2663 C847.488,77.0632 860.625,63.9367 876.818,63.9367 C893.01,63.9367 906.147,77.074 906.147,93.2663 C906.147,109.459 893.021,122.596 876.818,122.596 Z" id="Shape" fill="#B2E5E0"></path>
            <path d="M919.857,64.9723 C911.61,56.725 900.232,51.6406 887.656,51.6406 C862.482,51.6406 842.091,72.0429 842.091,97.2058 C842.091,100.11 842.371,102.959 842.89,105.723 C846.873,126.816 865.397,142.771 887.656,142.771 C895.99,142.771 903.784,140.547 910.498,136.65 C924.089,128.759 933.221018,114.057 933.221018,97.2058 C933.232,84.6081 928.126,73.2088 919.857,64.9723 Z M902.359,122.585 C898.03,125.1 893.01,126.535 887.656,126.535 C873.331,126.535 861.392,116.259 858.834,102.668 C858.499,100.908 858.326,99.0733 858.326,97.2058 C858.326,81.0026 871.464,67.876 887.656,67.876 C895.741,67.876 903.071,71.1469 908.382,76.4472 C913.693,81.7583 916.986013,89.1096 916.986013,97.2058 C916.996,108.055 911.102,117.522 902.359,122.585 Z" id="Shape" fill="#3FB8A9"></path>
            <path d="M933.233,97.2052 C933.233,114.056 924.089,128.769 910.509,136.65 L902.37,122.584 C911.114,117.521 916.997,108.054 916.997,97.2052 C916.997,89.0982 913.705,81.7577 908.394,76.4466 L919.869,64.9717 C928.127,73.2082 933.233,84.6075 933.233,97.2052 Z" id="Path" fill="#FFFFFF"></path>
            <path d="M910.509,136.649 C903.794,140.546 896,142.77 887.667,142.77 C865.408,142.77 846.884,126.815 842.9,105.722 L858.855,102.667 C861.414,116.258 873.353,126.534 887.678,126.534 C893.032,126.534 898.051,125.099 902.38,122.583 L910.509,136.649 Z" id="Path" fill="#FFC945"></path>
            <polygon id="Path" fill="#FFFFFF" points="771.496 64.4785 612.843 64.4785 612.843 71.8838 771.496 71.8838"></polygon>
            <polygon id="Path" fill="#FFFFFF" points="771.496 95.0361 612.843 95.0361 612.843 102.441 771.496 102.441"></polygon>
            <polygon id="Path" fill="#FFFFFF" points="771.496 125.609 612.843 125.609 612.843 133.015 771.496 133.015"></polygon>
            <path d="M1234.06,300.659 C1234.06,300.659 1223.34,312.76 1206.64,319.41 L1204.41,331.792 C1204.41,331.792 1220.03,327.009 1235.43,304.729 L1234.06,300.659 Z" id="Path" fill="#F5911F"></path>
            <path d="M825.211,792.192 L806.482,792.192 C806.482,792.192 821.584,784.624 826.528,769.112 C830.09,757.929 835.92,747.199 843.163,749.854 C850.406,752.51 844.437,764.827 840.594,771.768 C835.099,781.667 825.211,792.192 825.211,792.192 Z" id="Path" fill="#408C91"></path>
            <path d="M461.521,551.154 L458.563,551.154 L458.563,431.406 C458.563,421.227 466.843,412.947 477.023,412.947 L489.232,412.947 L489.232,415.905 L477.023,415.905 C468.473,415.905 461.521,422.857 461.521,431.406 L461.521,551.154 Z" id="Path" fill="#3FB8A9"></path>
            <path d="M473.46,552.397 L470.502,552.397 L470.502,432.649 C470.502,427.9 474.367,424.046 479.106,424.046 L500.577,424.046 L500.577,427.004 L479.106,427.004 C475.986,427.004 473.46,429.54 473.46,432.649 L473.46,552.397 Z" id="Path" fill="#3FB8A9"></path>
            <path d="M887.832,564.454 C888.275,565.652 888.512,566.85 888.577,568.027 C870.981,555.926 855.836,540.446 855.836,540.446 C878.019,524.718 875.062,475.126 875.062,475.126 C875.062,475.126 900.095,453.267 903.549,458.556 C907.004,463.845 894.676,494.158 903.549,506.604 C912.412,519.05 880.513,544.3 887.832,564.454 Z" id="Path" fill="#4F91B3"></path>
            <path d="M932.264,371.019 C930.192,364.866 927.137,361.455 927.137,361.455 C927.137,361.455 931.627,355.895 932.275,348.976 C932.275,348.976 938.255,362.782 932.264,371.019 Z" id="Path" fill="#DE6667"></path>
            <path d="M683.636,215.256 C694.061,206.221 695.189,190.446 686.154,180.02 C677.119,169.595 661.343,168.468 650.918,177.502 C640.492,186.537 639.365,202.313 648.4,212.738 C657.435,223.164 673.21,224.291 683.636,215.256 Z" id="Path" fill="#FFFFFF"></path>
            <polygon id="Path" fill="#FFFFFF" points="827.791 172.016 716.853 172.016 716.853 179.183 827.791 179.183"></polygon>
            <polygon id="Path" fill="#FFFFFF" points="827.791 193.195 716.852 193.195 716.852 200.363 827.791 200.363"></polygon>
            <polygon id="Path" fill="#FFFFFF" points="778.243 214.181 716.852 214.181 716.852 221.348 778.243 221.348"></polygon>
            <path d="M473.061,619.753 C473.061,622.343 470.956,624.448 468.365,624.448 C465.774,624.448 463.669,622.343 463.669,619.753 C463.669,617.162 465.774,615.057 468.365,615.057 C470.966,615.057 473.061,617.162 473.061,619.753 Z" id="Path" fill="#B6D5D0"></path>
            <path d="M468.376,602.365 C470.969,602.365 473.072,600.263 473.072,597.669 C473.072,595.076 470.969,592.974 468.376,592.974 C465.783,592.974 463.68,595.076 463.68,597.669 C463.68,600.263 465.783,602.365 468.376,602.365 Z" id="Path" fill="#B6D5D0"></path>
            <path d="M468.376,580.279 C470.97,580.279 473.072,578.177 473.072,575.583 C473.072,572.99 470.97,570.888 468.376,570.888 C465.783,570.888 463.681,572.99 463.681,575.583 C463.681,578.177 465.783,580.279 468.376,580.279 Z" id="Path" fill="#B6D5D0"></path>
            <path d="M201.991,689.49 L0.946777,689.49 C0.946777,689.49 14.775,658.638 46.6847,671.409 C46.6847,671.409 58.3863,639.499 86.0428,643.223 C113.699,646.947 119.021,666.205 119.021,666.205 C119.021,666.205 148.804,654.385 177.529,678.328 C177.529,678.328 200.933,675.662 201.991,689.49 Z" id="Path" fill="#EDF6F5"></path>
            <path d="M932.274,380.033 C932.274,380.033 932.954,375.952 936.592,373.437 C940.23,370.922 963.558,360.677 969.883,371.828 L932.274,380.033 Z" id="Path" fill="#93405E"></path>
        </g>
    </g>
</svg>